<?xml version="1.0" standalone="no"?>
<!DOCTYPE svg PUBLIC "-//W3C//DTD SVG 20010904//EN"
 "http://www.w3.org/TR/2001/REC-SVG-20010904/DTD/svg10.dtd">
<svg version="1.0" xmlns="http://www.w3.org/2000/svg"
 width="260.000000pt" height="260.000000pt" viewBox="0 0 260.000000 260.000000"
 preserveAspectRatio="xMidYMid meet">
<metadata>
Created by potrace 1.14, written by Peter Selinger 2001-2017
</metadata>
<g transform="translate(0.000000,260.000000) scale(0.100000,-0.100000)"
fill="#000000" stroke="none">
<path d="M1100 2583 c-52 -8 -142 -30 -200 -49 -211 -71 -364 -165 -520 -323
-190 -191 -300 -396 -357 -661 -25 -119 -25 -382 0 -500 59 -275 179 -492 378
-685 243 -236 561 -365 899 -365 354 0 682 141 934 400 178 183 287 391 343
650 25 118 25 381 0 500 -37 175 -101 328 -199 475 -68 103 -241 277 -343 345
-282 189 -609 263 -935 213z m71 -1005 l-3 -528 261 0 261 0 0 -40 c0 -39 1
-40 35 -40 33 0 35 -2 35 -35 0 -33 -2 -35 -35 -35 -33 0 -35 -2 -35 -35 0
-33 2 -35 35 -35 33 0 35 -2 35 -35 0 -33 -2 -35 -35 -35 -33 0 -35 -2 -35
-34 0 -33 -2 -35 -37 -38 -36 -3 -38 -5 -41 -41 l-3 -38 -357 3 -357 3 -46 27
c-25 15 -59 46 -75 70 l-29 43 -3 515 -3 514 163 163 163 164 55 -3 55 -3 -4
-527z m667 -565 c3 -32 2 -33 -32 -33 -35 0 -36 1 -36 36 0 34 1 35 33 32 28
-3 32 -7 35 -35z m70 -75 c-3 -29 -7 -33 -35 -36 -30 -3 -33 -6 -33 -38 0 -32
2 -34 35 -34 33 0 35 -2 35 -35 0 -33 -2 -35 -35 -35 -33 0 -35 2 -35 35 0 33
-2 35 -35 35 -33 0 -35 2 -35 35 0 33 2 35 35 35 33 0 35 2 35 35 0 33 2 35
36 35 34 0 35 -1 32 -32z m-72 -220 c-8 -40 -10 -42 -41 -34 -20 5 -25 13 -25
36 0 28 3 30 36 30 36 0 36 -1 30 -32z m-76 -73 c0 -33 -2 -35 -35 -35 -33 0
-35 2 -35 35 0 33 2 35 35 35 33 0 35 -2 35 -35z"/>
</g>
</svg>
