<svg width="31" height="16" viewBox="0 0 31 16" fill="none" xmlns="http://www.w3.org/2000/svg">
<path fill-rule="evenodd" clip-rule="evenodd" d="M24.3431 0.318193L30.7071 7.23182C31.0976 7.65608 31.0976 8.34393 30.7071 8.76818L24.3431 15.6818C23.9526 16.1061 23.3195 16.1061 22.9289 15.6818C22.5384 15.2576 22.5384 14.5697 22.9289 14.1454L27.5858 9.08637L0.999999 9.08637C0.447714 9.08637 -7.51835e-07 8.59999 -6.99382e-07 8C-6.4693e-07 7.40001 0.447715 6.91363 0.999999 6.91363L27.5858 6.91363L22.9289 1.85455C22.5384 1.4303 22.5384 0.742448 22.9289 0.318193C23.3195 -0.106062 23.9526 -0.106062 24.3431 0.318193Z" fill="#95A4C4"/>
</svg>
