<svg width="48" height="48" viewBox="0 0 48 48" fill="none" xmlns="http://www.w3.org/2000/svg">
<path fill-rule="evenodd" clip-rule="evenodd" d="M37.8124 18.8476C32.0744 15.6106 23.7141 10.894 18.0441 7.69594C16.3737 6.75411 14.3291 6.76905 12.6736 7.73577C11.0182 8.70331 10 10.4766 10 12.3934C10 18.8285 10 28.2617 10 34.6968C10 36.6137 11.0182 38.3869 12.6736 39.3545C14.3291 40.3212 16.3737 40.3361 18.0441 39.3943C23.7141 36.1963 32.0744 31.4797 37.8124 28.2426C39.5077 27.2867 40.5558 25.491 40.5558 23.5451C40.5558 21.5992 39.5077 19.8036 37.8124 18.8476ZM13.0288 36.383L24.1066 25.3051L29.1004 30.2989L16.821 37.2261C15.9215 37.7339 14.8203 37.7256 13.9291 37.2045C13.5681 36.9937 13.2636 36.7124 13.0288 36.383ZM12.4894 13.6879V33.4023L22.3466 23.5451L12.4894 13.6879ZM25.8666 23.5451L31.3516 18.061L36.5893 21.0159C37.5021 21.5304 38.0664 22.4971 38.0664 23.5451C38.0664 24.5932 37.5021 25.5599 36.5893 26.0744L31.3516 29.0293L25.8666 23.5451ZM29.1004 16.7914L24.1066 21.7851L13.0288 10.7073C13.2636 10.3779 13.5681 10.0965 13.9291 9.88578C14.8203 9.36466 15.9215 9.35637 16.821 9.8642L29.1004 16.7914Z" fill="#C7C7C7"/>
</svg>
