<svg width="48" height="48" viewBox="0 0 48 48" fill="none" xmlns="http://www.w3.org/2000/svg">
<path fill-rule="evenodd" clip-rule="evenodd" d="M13.6148 31.2662C9.73475 33.662 6.61373 34.1628 5.98424 34.4137C4.92504 34.8352 4.95971 35.6918 5.02996 36.0431C5.12575 36.5257 5.47426 36.9189 5.94136 37.074C15.7077 40.31 22.6275 39.6659 27.5002 37.3431C34.9474 33.7933 37.7427 26.2376 38.5601 21.6377C38.8119 20.2209 38.8585 19.054 38.8174 18.3032L42.494 12.7153C42.7996 12.2509 42.7933 11.647 42.4776 11.1881C42.1629 10.7292 41.6009 10.5075 41.0571 10.627L36.179 11.6971C34.4538 9.65265 31.3711 8.19296 28.0549 9.49209C23.2297 11.3824 22.6357 15.4294 22.7087 17.6691C20.584 17.6472 18.3123 16.7933 16.256 15.7505C12.3002 13.7444 9.12806 10.9381 9.12806 10.9381C8.7011 10.5604 8.08438 10.4874 7.58078 10.7538C7.07719 11.0202 6.79163 11.5712 6.86371 12.1369C7.5151 17.2303 10.1316 20.8905 12.3476 23.1485C10.3059 22.6294 9.11347 21.6277 9.11347 21.6277C8.65001 21.229 7.97855 21.1861 7.46857 21.5227C6.95767 21.8585 6.73233 22.4925 6.91571 23.0755C8.31793 27.5403 11.4271 30.0191 13.6139 31.2671L13.6148 31.2662ZM36.0978 18.3333C36.0987 18.4501 36.1005 19.8386 35.8661 21.1587C35.1545 25.1601 32.7998 31.7844 26.3224 34.8726C22.6376 36.6288 17.6618 37.2191 10.9709 35.659C12.7755 34.9109 14.996 33.7824 17.2029 32.1302C17.6162 31.82 17.8206 31.3036 17.7302 30.7946C17.639 30.2855 17.2695 29.8713 16.7751 29.7235C16.7751 29.7235 13.6011 28.761 11.2912 25.6984C12.729 26.1144 14.5107 26.3516 16.567 26.0724C17.1436 25.994 17.608 25.5597 17.7239 24.9895C17.8397 24.4184 17.5825 23.8373 17.0816 23.5399C17.0816 23.5399 12.604 20.8704 10.5075 15.4559C11.7738 16.3435 13.3302 17.3352 15.0179 18.191C18.0286 19.7173 21.4497 20.7774 24.4476 20.272C24.8216 20.209 25.1528 19.9937 25.3617 19.6771C25.5706 19.3615 25.64 18.9719 25.5515 18.6033C25.5515 18.6033 24.4239 13.8548 29.0529 12.0402C31.3748 11.1306 33.4941 12.4462 34.4502 13.956C34.7585 14.4423 35.3379 14.6841 35.8998 14.56L38.3585 14.0208L36.2684 17.1984C36.0476 17.5341 35.9865 17.9492 36.0978 18.3333Z" fill="#C7C7C7"/>
</svg>
